<svg width="284" height="284" viewBox="0 0 284 284" fill="none" xmlns="http://www.w3.org/2000/svg">
<path d="M279.973 10.5831C279.313 7.51728 276.282 4.48612 273.207 3.82792C255.361 0 241.388 0 227.476 0C170.258 0 135.945 30.5974 110.329 70.9464H52.5656C43.5046 70.9551 32.8577 77.5284 28.7949 85.6259L1.39433 140.395C0.547558 142.262 0.0739063 144.278 0 146.327C0.00127408 149.855 1.40363 153.239 3.89875 155.733C6.39386 158.228 9.77748 159.629 13.3057 159.63H70.8446L58.3876 172.083C52.0882 178.38 51.1843 189.963 58.3876 197.164L86.6022 225.38C92.7858 231.581 104.425 232.672 111.698 225.38L124.155 212.926V270.483C124.156 274.012 125.559 277.395 128.054 279.889C130.549 282.384 133.932 283.785 137.461 283.786C139.511 283.71 141.526 283.236 143.395 282.391L198.117 255.016C206.226 250.971 212.81 240.328 212.81 231.26V173.374C253.048 147.704 283.776 113.287 283.776 56.3709C283.828 42.4016 283.828 28.4323 279.973 10.5831ZM212.862 93.1172C208.477 93.1162 204.191 91.815 200.546 89.3782C196.9 86.9414 194.06 83.4784 192.382 79.4271C190.705 75.3759 190.267 70.9182 191.123 66.6179C191.979 62.3175 194.091 58.3676 197.192 55.2675C200.293 52.1674 204.243 50.0563 208.544 49.2013C212.844 48.3463 217.302 48.7856 221.353 50.4638C225.404 52.1421 228.866 54.9837 231.302 58.6296C233.738 62.2754 235.038 66.5617 235.038 70.9464C235.034 76.8264 232.697 82.4644 228.539 86.6217C224.38 90.7789 218.742 93.1152 212.862 93.1172Z" fill="white"/>
</svg>
